**ABCDEFGHIJKLMNOPQRSTUVWXYZabcdefghijklmnopqrstuvwxyz**************************
**PARASOLID !"#$%&'()*+,-./:;<=>?@[\]^_`{|}~0123456789**************************
**PART1;
MC=unknown;
MC_MODEL=unknown;
MC_ID=unknown;
OS=unknown;
OS_RELEASE=unknown;
FRU=Parasolid 37.1.212;
APPL=Onshape;
SITE=unknown;
USER=unknown;
FORMAT=text;
GUISE=transmit;
KEY=BTGapi::writeModels_.xmt;
FILE=BTGapi::writeModels_.xmt;
DATE=2026-01-22T08:12:45 (UTC);
**PART2;
SCH=SCH_3701212_37102;
USFLD_SIZE=0;
**PART3;
**END_OF_HEADER*****************************************************************
T51 : TRANSMIT FILE created by modeller version 370121223 SCH_3701212_37102_1300
6239 0 10 21 CCCCI7 lattice222 0 CCCI4 mesh1006 0 I8 polyline1008 0 CCCCCCCCCCA1
6 mesh_offset_data206 0 Z1 5 2 3 0 0 0 0 0 0 0 0 1e3 1e-8 0 0 0 1 0 1 4 0 81 255
 1 2 2 5 1 6 0 0 0 7 70 11 CI9 list_type0 0 1 uI10 notransmit0 0 1 lCCCDCCDI12 f
inger_index0 0 1 dI12 finger_block1012 0 CZ3 0 4 T1 0 0 3 20 1 8 8 11 255 4 3 9
 1 10 11 1 0 0 0 0 81 1 9 5 12 4 0 0 0 0 13 12 36 CCCI7 lattice222 0 CCCI4 mesh1
006 0 I8 polyline1008 0 CCCCCCCDI5 owner1040 0 CCCI16 boundary_lattice222 0 CCCI
13 boundary_mesh1006 0 I17 boundary_polyline1008 0 CCCA16 index_map_offset0 0 1
 dA9 index_map82 0 A17 node_id_index_map82 0 A20 schema_embedding_map82 0 A5 chi
ld12 0 A14 lowest_node_id0 0 1 dA16 mesh_offset_data206 0 Z10 875 14 15 0 0 0 0
 0 0 0 1e3 1e-8 4 0 0 1 0 1 2 16 0 17 18 19 0 0 20 21 22 0 0 0 0 0 0 0 100 10 CC
CCCCCCCA9 precision229 0 Z11 4 4 0 0 1 0 0 0 1 0 0 0 1 0 0 0 1 0 ?0 81 1 14 875
 5 10 23 0 0 0 24 70 15 0 4 T10 0 0 3 20 1 25 25 13 255 16 271 0 10 0 27 0 0 30
 0 50 255 17 266 0 29 26 0 0 +0 -.04 .0903361751998492 -1 0 0 0 0 1 30 255 18 41
4 0 21 28 0 0 +-.0799933991797435 -.04 .1604269969286835 -1 0 0 29 255 19 355 0
 22 34 0 -.0700899498726612 0 .02024535347101475 19 9 CCCCCCI5 frame230 0 CA5 ow
ner12 0 Z20 146 0 10 30 0 35 0 V0 16 255 21 412 0 ?32 0 33 18 0 0 10 18 255 22 3
53 0 31 0 38 19 ?10 17 255 31 0 40 36 39 22 37 41 0 45 -18 38 348 0 43 22 42 34
 ?10 17 43 0 44 46 50 38 48 47 0 49 +18 42 140 0 51 38 55 52 ?10 29 34 350 0 38
 53 19 -.0902783603440812 0 .1600971011667545 29 53 247 0 54 57 34 0 0 0 18 54 2
26 0 60 59 56 53 ?10 29 57 248 0 56 58 53 -.159986798359487 0 0 18 56 230 0 61 5
4 62 57 ?10 29 58 249 0 62 64 57 -.159986798359487 0 .180204523642413 18 62 234
 0 63 56 65 58 ?10 29 64 250 0 65 52 58 0 0 .180204523642413 18 65 238 0 66 62 7
0 64 ?10 29 52 142 0 42 68 64 0 -.04 0 29 68 137 0 55 67 52 -.159986798359487 -.
04 0 18 55 135 0 69 42 72 68 ?10 29 67 132 0 72 75 68 -.159986798359487 -.04 .18
0204523642413 18 72 130 0 74 55 59 67 ?10 29 75 127 0 59 71 67 0 -.04 .180204523
642413 18 59 125 0 73 72 54 75 ?10 29 71 786 0 70 76 75 0 -.04 .1604269969286835
 18 70 551 0 80 65 77 71 ?10 29 76 787 0 77 78 71 0 -.04 .02024535347101475 18 7
7 564 0 79 70 81 76 ?10 29 78 788 0 81 85 76 -.159986798359487 -.04 .16009710116
67545 18 81 693 0 83 77 82 78 ?10 29 85 789 0 82 84 78 -.159986798359487 -.04 .0
197819055383841 18 82 684 0 89 81 90 85 ?10 29 84 790 0 90 87 85 -.0700899498726
612 -.04 .1604269969286835 18 90 554 0 32 82 88 84 ?10 29 87 791 0 88 86 84 -.07
00899498726612 -.04 .02024535347101475 18 88 561 0 93 90 95 87 ?10 29 86 792 0 9
5 91 87 -.0902783603440812 -.04 .0197819055383841 18 95 687 0 94 88 92 86 ?10 29
 91 793 0 92 96 86 -.0902783603440812 -.04 .1600971011667545 18 92 690 0 100 95
 98 91 ?10 29 96 795 0 97 99 91 -.0902783603440812 0 .0197819055383841 18 97 698
 0 101 105 103 96 ?10 29 99 796 0 103 102 96 -.159986798359487 0 .01978190553838
41 18 103 696 0 104 97 106 99 ?10 29 102 797 0 106 110 99 -.159986798359487 0 .1
600971011667545 18 106 694 0 50 103 0 102 ?10 29 110 802 0 98 107 102 0 0 .16042
69969286835 18 98 557 0 108 92 109 110 ?10 29 107 803 0 109 112 110 0 0 .0202453
5347101475 18 109 565 0 39 98 105 107 ?10 29 112 805 0 105 0 107 -.0700899498726
612 0 .1604269969286835 18 105 559 0 115 109 97 112 ?10 17 115 0 114 108 32 105
 111 113 0 116 +15 255 114 590 0 32 117 0 17 108 0 114 80 115 98 119 118 0 120 +
17 32 0 114 115 80 90 121 21 0 111 +17 111 0 125 93 116 90 115 113 0 123 -16 113
 500 0 ?115 122 124 127 0 0 10 17 116 0 125 111 45 105 130 129 0 119 -15 125 594
 0 45 126 0 17 45 0 125 116 93 22 36 124 0 130 +17 130 0 128 37 119 22 116 129 0
 0 +16 129 514 0 ?130 41 118 131 0 0 10 17 119 0 128 130 135 105 108 118 0 0 -15
 128 367 0 48 132 0 17 135 0 128 119 133 98 66 134 0 0 -16 118 541 0 ?108 129 13
6 140 0 0 10 16 136 612 0 ?50 118 138 137 0 0 10 30 140 781 0 118 0 131 0 +-.035
0449749363306 0 .1604269969286835 1 0 0 30 131 780 0 129 140 139 0 +-.0700899498
726612 0 .0903361751998492 0 0 -1 30 139 779 0 41 131 144 0 +-.0350449749363306
 0 .02024535347101475 1 0 0 16 41 525 0 ?37 145 129 139 0 0 10 30 144 777 0 145
 139 142 0 +0 -.1009 .1604269969286835 0 1 0 16 145 488 0 ?120 143 41 144 0 0 10
 30 142 776 0 143 144 141 0 +0 -.1009 .02024535347101475 0 1 0 16 143 479 0 ?39
 124 145 142 0 0 10 30 141 775 0 124 142 127 0 +-.0700899498726612 -.1009 .02024
535347101475 0 1 0 16 124 497 0 ?45 113 143 141 0 0 10 30 127 774 0 113 141 148
 0 +-.0700899498726612 -.1009 .1604269969286835 0 1 0 30 148 769 0 47 127 150 0
 +-.125132579351784 0 .1600971011667545 1 0 0 16 47 674 0 ?43 146 0 148 0 0 10 3
0 150 767 0 146 148 149 0 +-.125132579351784 0 .0197819055383841 1 0 0 16 146 66
0 0 ?147 151 47 150 0 0 10 30 149 766 0 151 150 155 0 +-.0902783603440812 0 .089
9395033525693 0 0 -1 16 151 679 0 ?153 152 146 149 0 0 10 30 155 765 0 152 149 1
54 0 +-.0902783603440812 -.1009 .1600971011667545 0 1 0 16 152 615 0 ?49 156 151
 155 0 0 10 30 154 764 0 156 155 160 0 +-.0902783603440812 -.1009 .0197819055383
841 0 1 0 16 156 627 0 ?101 138 152 154 0 0 10 30 160 763 0 138 154 137 0 +-.159
986798359487 -.1009 .0197819055383841 0 1 0 16 138 624 0 ?158 136 156 160 0 0 10
 30 137 762 0 136 160 157 0 +-.159986798359487 -.1009 .1600971011667545 0 1 0 30
 157 761 0 122 137 159 0 +-.0902783603440812 -.04 .0901022618212066 0 0 1 16 122
 630 0 ?100 161 113 157 0 0 10 30 159 760 0 161 157 165 0 +-.0700899498726612 -.
04 .0901022618212066 0 0 1 16 161 508 0 ?123 134 122 159 0 0 10 30 165 22 0 162
 159 163 0 +0 -.04 .0903361751998492 0 0 1 16 162 20 0 ?164 167 170 165 170 170
 10 30 163 37 0 169 165 166 0 +-.159986798359487 -.04 .0899395033525693 0 0 1 16
 169 35 0 ?168 171 167 163 167 167 10 30 166 67 0 171 163 172 0 +-.0799933991797
435 -.04 .180204523642413 -1 0 0 16 171 65 0 ?174 173 169 166 0 0 10 30 172 82 0
 173 166 175 0 +-.0799933991797435 -.04 0 -1 0 0 16 173 80 0 ?176 180 171 172 0
 0 10 30 175 246 0 178 172 177 0 +0 0 .0903361751998492 0 0 1 16 178 218 0 ?179
 182 134 175 134 134 10 30 177 245 0 185 175 184 0 +-.159986798359487 0 .0899395
033525693 0 0 1 16 185 210 0 ?181 183 182 177 182 182 10 30 184 244 0 183 177 18
6 0 +-.0799933991797435 0 .180204523642413 -1 0 0 16 183 206 0 ?190 187 185 184
 0 0 10 30 186 243 0 187 184 188 0 +-.0799933991797435 0 0 -1 0 0 16 187 202 0 ?
189 170 183 186 0 0 10 30 188 267 0 191 186 195 0 +0 -.04 0 0 1 0 16 191 251 0 ?
60 193 192 188 0 0 10 30 195 268 0 180 188 194 0 +-.159986798359487 -.04 0 0 1 0
 16 180 252 0 ?61 199 173 195 0 0 10 30 194 269 0 199 195 200 0 +-.1599867983594
87 -.04 .180204523642413 0 1 0 16 199 253 0 ?197 192 180 194 0 0 10 30 200 270 0
 192 194 198 0 +0 -.04 .180204523642413 0 1 0 16 192 254 0 ?196 191 199 200 0 0
 10 30 198 398 0 193 200 203 0 +-.0799933991797435 -.04 .0197819055383841 -1 0 0
 16 193 397 0 ?205 201 191 198 0 0 10 30 203 401 0 201 198 28 0 +-.0799933991797
435 -.04 .1600971011667545 -1 0 0 16 201 399 0 ?83 33 193 203 0 0 10 30 28 408 0
 33 203 18 0 +-.0799933991797435 -.04 .02024535347101475 -1 0 0 16 33 406 0 ?204
 21 201 28 0 0 10 17 204 0 202 123 164 88 79 33 0 0 +15 202 413 0 121 206 0 17 1
23 0 202 121 204 90 93 161 0 0 +17 164 0 202 204 210 77 208 162 0 0 +17 79 0 40
 39 36 77 204 33 0 207 -15 40 598 0 39 209 0 17 39 0 40 31 79 109 207 143 0 37 +
17 36 0 40 79 31 88 45 124 0 204 -17 207 0 211 208 179 77 39 143 0 164 -15 211 4
29 0 207 27 0 17 208 0 211 60 207 42 164 162 0 210 -17 179 0 211 207 60 109 215
 178 0 0 +17 60 0 211 179 208 54 51 191 0 215 +17 215 0 128 189 37 54 179 178 0
 213 -17 189 0 128 181 215 56 213 187 0 0 +17 37 0 128 215 130 109 31 41 0 179 +
17 213 0 212 51 61 54 189 187 0 0 -15 212 255 0 213 214 0 17 51 0 212 176 213 42
 60 191 0 208 -17 61 0 212 213 176 56 69 180 0 216 +17 176 0 212 61 51 55 210 17
3 0 0 +17 69 0 220 168 216 55 61 180 0 217 -17 216 0 220 69 158 56 181 185 0 189
 -15 220 259 0 168 218 0 17 158 0 220 216 168 103 89 138 0 181 +17 181 0 128 147
 189 103 216 185 0 0 +17 147 0 128 219 181 97 104 146 0 0 +17 219 0 128 48 147 3
8 153 151 0 0 -17 104 0 222 89 101 103 147 146 0 158 -15 222 731 0 101 225 0 17
 89 0 222 94 104 82 158 138 0 205 -17 101 0 222 104 94 97 224 156 0 153 +17 94 0
 222 101 89 95 205 193 0 224 -17 224 0 221 100 153 95 101 156 0 223 -17 153 0 22
1 224 49 97 219 151 0 147 +15 221 735 0 100 226 0 17 49 0 221 153 100 38 46 152
 0 219 +17 100 0 221 49 224 92 223 122 0 46 +17 46 0 44 83 43 92 49 152 0 227 -1
5 44 723 0 83 229 0 17 83 0 44 50 46 81 227 201 0 228 +17 227 0 202 223 230 92 8
3 201 0 0 -17 223 0 202 205 227 95 100 122 0 0 -17 230 0 202 227 174 81 74 167 0
 0 -17 174 0 202 230 73 72 231 171 0 235 +17 74 0 233 197 228 72 230 167 0 174 +
16 167 387 0 ?74 169 162 163 169 169 10 15 233 419 0 228 232 0 17 197 0 233 234
 74 62 235 199 0 190 +17 228 0 233 74 234 81 50 136 0 230 -17 234 0 233 228 197
 106 63 182 0 0 -17 50 0 44 43 83 106 228 136 0 48 +17 48 0 128 63 219 106 43 47
 0 234 -17 63 0 128 133 48 62 234 182 0 197 +17 133 0 128 135 63 65 190 183 0 0
 -16 182 331 0 ?63 185 178 177 185 185 10 17 190 0 237 235 196 62 133 183 0 0 +1
5 237 257 0 190 240 0 17 235 0 237 231 190 72 197 199 0 0 -17 196 0 237 190 231
 65 239 192 0 133 +17 231 0 237 196 235 59 174 171 0 0 -17 239 0 236 238 66 59 1
96 192 0 231 -15 236 261 0 238 29 0 17 238 0 236 120 239 70 73 170 0 0 -17 66 0
 236 239 120 65 135 134 0 196 +17 120 0 236 66 238 98 80 145 0 135 +16 134 341 0
 ?66 178 161 175 178 178 10 17 80 0 114 32 108 70 120 145 0 121 -17 121 0 202 73
 123 70 32 21 0 238 -17 73 0 202 174 121 59 238 170 0 239 +16 170 377 0 ?73 162
 187 165 162 162 10 14 255 29 262 0 ?240 214 236 16 17 -27 27 240 214 35 14 240
 258 0 ?232 29 237 16 241 -0 0 232 29 35 14 214 256 0 ?29 132 212 16 245 +0 0 29
 132 35 14 27 430 0 ?218 0 211 16 17 -29 29 218 0 35 13 35 147 0 0 0 0 0 0 20 27
 14 218 425 0 ?132 27 220 16 26 +232 232 132 27 35 14 132 188 0 ?214 218 128 16
 242 -0 0 214 218 35 50 26 265 0 232 241 17 0 +-.159986798359487 -.04 .089939503
3525693 -1 0 0 0 0 1 14 232 260 0 ?206 240 233 16 26 +218 218 206 240 35 14 206
 1 0 ?229 232 202 16 243 +0 0 229 232 35 14 229 720 0 ?225 206 44 16 244 -0 0 22
5 206 35 50 243 3 0 206 244 242 0 +-.0799933991797435 -.04 .0901022618212066 0 -
1 0 1 0 0 50 244 748 0 229 246 243 0 +-.125132579351784 -.1009 .1600971011667545
 0 0 1 1 0 0 50 242 242 0 132 243 245 0 +-.0799933991797435 0 .0901022618212066
 0 -1 0 1 0 0 50 245 263 0 214 242 241 0 +-.0799933991797435 -.04 0 0 0 -1 -1 0
 0 50 241 264 0 240 245 26 0 +-.0799933991797435 -.04 .180204523642413 0 0 -1 -1
 0 0 50 246 750 0 225 250 244 0 +-.125132579351784 -.1009 .0197819055383841 0 0
 1 1 0 0 14 225 728 0 ?226 229 222 16 246 +0 0 226 229 35 50 250 751 0 226 248 2
46 0 +-.0902783603440812 -.1009 .0899395033525693 1 0 0 0 0 -1 14 226 732 0 ?117
 225 221 16 250 -0 0 117 225 35 50 248 754 0 117 247 250 0 +-.0350449749363306 -
.1009 .1604269969286835 0 0 1 1 0 0 14 117 587 0 ?126 226 114 16 248 -0 0 126 22
6 35 50 247 755 0 126 249 248 0 +-.0700899498726612 -.1009 .0903361751998492 1 0
 0 0 0 -1 14 126 591 0 ?209 117 125 16 247 +0 0 209 117 35 50 249 756 0 209 0 24
7 0 +-.0350449749363306 -.1009 .02024535347101475 0 0 1 1 0 0 14 209 595 0 ?0 12
6 40 16 249 +0 0 0 126 35 17 205 0 202 217 223 82 94 193 0 168 +17 217 0 202 210
 205 55 168 169 0 176 -17 168 0 220 158 69 82 217 169 0 0 +17 210 0 202 164 217
 42 176 173 0 0 -17 93 0 125 45 111 88 123 161 0 36 -19 30 272 0 10 0 20 16 0 S0
 74 4 CI16 index_map_offset0 0 1 dCCZ20 25 3 0 0 254 23 14 0 0 0 0 0 0 0 0 0 0 0
 0 0 0 0 0 0 81 1 254 873 255 10 0 23 0 0 252 81 1 23 874 253 10 254 14 0 0 251
 80 7 CCCCCDI12 legal_owners0 17 1 lCZ1 253 5 258 8038 0 0 0 0 0 0 0 0 0 TTTTTTT
TTTTTTFTFT10 98 255 6 251 80 97 114 116 32 49 79 255 14 258 SDL/TYSA_UNAME80 1 2
55 260 256 8040 0 0 0 0 3 5 0 0 0 TTTFFFFFFFFFFFFFF2 83 255 3 252 .6156862745098
04 .811764705882353 .929411764705882 79 17 256 SDL/TYSA_COLOUR_280 1 5 259 257 8
017 0 0 0 0 0 0 0 0 0 TTTTTTTTTTTTTFTFT3 84 255 6 24 Part 179 13 257 SDL/TYSA_NA
ME80 1 12 261 265 9000 0 0 0 0 3 5 0 0 0 FTFFFFFFFFFFFFFFF3 84 17 13 MhvWE9eh/ER
wECJ9r79 14 265 BTI/InstanceId74 20 8 3 0 0 6 2 9 0 0 0 0 0 0 0 0 0 0 0 0 0 0 0
 0 0 81 1 6 1 253 1 0 2 0 0 263 98 10 263 65 115 115 101 109 98 108 121 32 49 84
 10 7 Assembly 11 0 
